<?xml version="1.0" encoding="UTF-8"?>
<svg id="Layer_2" data-name="Layer 2" xmlns="http://www.w3.org/2000/svg" viewBox="0 0 402.56 434.86">
  <defs>
    <style>
      .cls-1 {
        fill: #020b1d;
      }

      .cls-2 {
        fill: #01a4b6;
      }
    </style>
  </defs>
  <g id="Layer_1-2" data-name="Layer 1">
    <g>
      <path class="cls-1" d="M299.72,55.33l-54.25,54.22c-3.48-.6-7.03-.91-10.69-.91H70.32v309.81H0V38.31h234.78c23.59,0,45.75,6.19,64.94,17.02Z"/>
      <path class="cls-2" d="M298.45,13.23l21.69,21.69-20.41,20.41c5.71,3.23,11.15,6.89,16.3,10.9-5.15-4.01-10.6-7.66-16.32-10.9l-54.21,54.21c25.25,4.38,45.34,24.13,50.28,49.21.73,3.87,1.12,7.91,1.12,12.01,0,34.23-27.83,62.12-62.12,62.12h-13.21l74.18-74.15c-4.92-25.07-25-44.8-50.28-49.19l-123.35,123.35h.02l-33.72,33.72,36.59,36.59,26.88,26.88,103.82,104.77h99.05l-130.47-131.65h10.49c73.06,0,132.44-59.43,132.44-132.44,0-24.02-6.4-46.52-17.56-65.94-.3-.52-.62-1.03-.93-1.55.31.52.63,1.03.93,1.55l20.2-20.2,19.48,19.48L402.56,0l-104.12,13.23Z"/>
    </g>
  </g>
</svg>