<?xml version="1.0" encoding="UTF-8"?>
<svg id="Layer_2" data-name="Layer 2" xmlns="http://www.w3.org/2000/svg" viewBox="0 0 581.37 102.55">
  <defs>
    <style>
      .cls-1 {
        fill: #fff;
      }

      .cls-2 {
        fill: #01a4b6;
      }
    </style>
  </defs>
  <g id="Layer_1-2" data-name="Layer 1">
    <g>
      <g>
        <path class="cls-2" d="M158.32,88.39l-12.48-18.03h-13.78v18.03h-14.98V23.67h28.02c17.29,0,28.11,8.97,28.11,23.49,0,9.71-4.9,16.83-13.31,20.43l14.52,20.8h-16.09ZM144.27,35.88h-12.2v22.56h12.2c9.15,0,13.78-4.25,13.78-11.28s-4.62-11.28-13.78-11.28Z"/>
        <path class="cls-2" d="M235.16,76.37v12.02h-50.11V23.67h48.91v12.02h-34.03v14.05h30.05v11.65h-30.05v14.98h35.23Z"/>
        <path class="cls-2" d="M242.84,56.03c0-19.51,14.98-33.47,35.14-33.47,11.19,0,20.53,4.07,26.63,11.47l-9.62,8.88c-4.35-4.99-9.8-7.58-16.27-7.58-12.11,0-20.71,8.51-20.71,20.71s8.6,20.71,20.71,20.71c6.47,0,11.93-2.59,16.27-7.67l9.62,8.88c-6.1,7.49-15.44,11.56-26.72,11.56-20.06,0-35.04-13.96-35.04-33.47Z"/>
        <path class="cls-2" d="M309.23,56.03c0-19.23,14.98-33.47,35.41-33.47s35.41,14.15,35.41,33.47-15.07,33.47-35.41,33.47-35.41-14.24-35.41-33.47ZM364.9,56.03c0-12.3-8.69-20.71-20.25-20.71s-20.25,8.41-20.25,20.71,8.69,20.71,20.25,20.71,20.25-8.41,20.25-20.71Z"/>
        <path class="cls-2" d="M450.71,23.67v64.72h-12.3l-32.27-39.3v39.3h-14.79V23.67h12.39l32.18,39.3V23.67h14.79Z"/>
        <path class="cls-1" d="M481.04,35.69v17.1h29.96v12.02h-29.96v23.58h-14.98V23.67h48.91v12.02h-33.93Z"/>
        <path class="cls-1" d="M556.22,65.46v22.93h-14.98v-23.11l-25.06-41.61h15.9l17.29,28.76,17.29-28.76h14.7l-25.15,41.79Z"/>
      </g>
      <path class="cls-1" d="M70.68,13.05l-12.79,12.79c-.82-.14-1.66-.22-2.52-.22H16.58v73.06H0V9.04h55.36c5.56,0,10.79,1.46,15.31,4.01Z"/>
      <polygon class="cls-2" points="83.66 102.55 60.3 102.55 35.82 77.84 29.48 71.5 52.89 71.5 83.66 102.55"/>
      <path class="cls-2" d="M86.59,40.27c0,17.22-14,31.23-31.23,31.23h-25.88l-8.63-8.63,7.95-7.95h26.56c8.09,0,14.65-6.58,14.65-14.65,0-.97-.09-1.92-.26-2.83-1.16-5.92-5.9-10.57-11.86-11.61l12.78-12.78c4.9,2.77,8.97,6.8,11.78,11.67,2.63,4.58,4.14,9.89,4.14,15.55Z"/>
      <path class="cls-2" d="M69.74,37.43l-17.5,17.49h-23.45l29.09-29.09c5.96,1.04,10.7,5.69,11.86,11.6Z"/>
      <path class="cls-2" d="M87.71,19.47l-5.26,5.26c-2.81-4.87-6.88-8.91-11.77-11.67l5.31-5.31,11.72,11.72Z"/>
      <polygon class="cls-2" points="94.93 0 70.38 3.12 91.81 24.55 94.93 0"/>
    </g>
  </g>
</svg>